<?xml version="1.0" standalone="no"?>
<!DOCTYPE svg PUBLIC "-//W3C//DTD SVG 20010904//EN"
 "http://www.w3.org/TR/2001/REC-SVG-20010904/DTD/svg10.dtd">
<svg version="1.0" xmlns="http://www.w3.org/2000/svg"
 width="1000.000000pt" height="1000.000000pt" viewBox="0 0 1000.000000 1000.000000"
 preserveAspectRatio="xMidYMid meet">
<metadata>
Created by potrace 1.11, written by Peter Selinger 2001-2013
</metadata>
<g transform="translate(0.000000,1000.000000) scale(0.100000,-0.100000)"
fill="#000000" stroke="none">
<path d="M2995 7849 c-88 -4 -182 -9 -210 -13 -403 -56 -578 -99 -870 -215
-162 -65 -430 -219 -565 -324 -350 -274 -599 -592 -788 -1007 -308 -675 -388
-1646 -207 -2530 194 -950 720 -1624 1512 -1939 345 -137 728 -201 1198 -201
583 0 964 52 1388 190 l157 51 0 331 0 330 -22 -5 c-13 -3 -112 -28 -221 -56
-1097 -283 -1915 -218 -2473 197 -469 348 -743 918 -813 1692 -14 147 -14 606
-1 741 26 259 61 447 122 644 227 740 736 1234 1431 1390 197 44 349 58 582
52 216 -6 330 -19 520 -57 202 -40 477 -128 685 -218 63 -27 118 -47 122 -43
4 3 75 148 157 321 l150 315 -97 46 c-469 223 -1103 334 -1757 308z"/>
<path d="M5937 7763 c-4 -3 -7 -1369 -7 -3035 l0 -3028 385 0 385 0 0 1180 0
1180 348 0 c694 0 1013 30 1367 126 317 86 635 251 853 442 394 344 589 891
544 1519 -32 428 -144 727 -370 988 -329 380 -857 582 -1632 625 -203 11
-1863 14 -1873 3z m1708 -653 c359 -18 592 -67 811 -169 207 -97 378 -265 464
-455 173 -381 130 -956 -95 -1271 -59 -83 -171 -185 -269 -246 -130 -80 -345
-156 -547 -194 -226 -42 -306 -47 -811 -52 l-498 -5 0 1201 0 1201 378 0 c207
0 463 -5 567 -10z"/>
</g>
</svg>
